<svg width="2177pt" height="626pt" viewBox="0.00 0.00 2177.00 626.00" xmlns="http://www.w3.org/2000/svg" xmlns:xlink="http://www.w3.org/1999/xlink">
<g id="graph1" class="graph" transform="scale(1 1) rotate(0) translate(4 622)">
<title>Tree</title>
<polygon fill="white" stroke="white" points="-4,5 -4,-622 2174,-622 2174,5 -4,5"></polygon>
<!-- 0 -->
<g id="node1" class="node"><title>0</title>
<polygon fill="#e58139" fill-opacity="0.376471" stroke="black" points="1074.15,-617.7 955.846,-617.7 955.846,-542.3 1074.15,-542.3 1074.15,-617.7"></polygon>
<text text-anchor="middle" x="1015" y="-601" font-family="Times,serif" font-size="14.00">isMale &lt;= 0.5</text>
<text text-anchor="middle" x="1015" y="-584.2" font-family="Times,serif" font-size="14.00">gini = 0.473</text>
<text text-anchor="middle" x="1015" y="-567.4" font-family="Times,serif" font-size="14.00">samples = 891</text>
<text text-anchor="middle" x="1015" y="-550.6" font-family="Times,serif" font-size="14.00">value = [549, 342]</text>
</g>
<!-- 1 -->
<g id="node2" class="node"><title>1</title>
<polygon fill="#399de5" fill-opacity="0.650980" stroke="black" points="975.903,-505.7 864.097,-505.7 864.097,-430.3 975.903,-430.3 975.903,-505.7"></polygon>
<text text-anchor="middle" x="920" y="-489" font-family="Times,serif" font-size="14.00">Pclass_3 &lt;= 0.5</text>
<text text-anchor="middle" x="920" y="-472.2" font-family="Times,serif" font-size="14.00">gini = 0.383</text>
<text text-anchor="middle" x="920" y="-455.4" font-family="Times,serif" font-size="14.00">samples = 314</text>
<text text-anchor="middle" x="920" y="-438.6" font-family="Times,serif" font-size="14.00">value = [81, 233]</text>
</g>
<!-- 0&#45;&gt;1 -->
<g id="edge2" class="edge"><title>0-&gt;1</title>
<path fill="none" stroke="black" d="M983.366,-542.372C975.359,-533.1 966.673,-523.042 958.373,-513.432"></path>
<polygon fill="black" stroke="black" points="961.005,-511.124 951.819,-505.844 955.707,-515.699 961.005,-511.124"></polygon>
<text text-anchor="middle" x="949.995" y="-526.577" font-family="Times,serif" font-size="14.00">True</text>
</g>
<!-- 26 -->
<g id="node52" class="node"><title>26</title>
<polygon fill="#e58139" fill-opacity="0.768627" stroke="black" points="1170.15,-505.7 1051.85,-505.7 1051.85,-430.3 1170.15,-430.3 1170.15,-505.7"></polygon>
<text text-anchor="middle" x="1111" y="-489" font-family="Times,serif" font-size="14.00">Age &lt;= 6.5</text>
<text text-anchor="middle" x="1111" y="-472.2" font-family="Times,serif" font-size="14.00">gini = 0.306</text>
<text text-anchor="middle" x="1111" y="-455.4" font-family="Times,serif" font-size="14.00">samples = 577</text>
<text text-anchor="middle" x="1111" y="-438.6" font-family="Times,serif" font-size="14.00">value = [468, 109]</text>
</g>
<!-- 0&#45;&gt;26 -->
<g id="edge52" class="edge"><title>0-&gt;26</title>
<path fill="none" stroke="black" d="M1046.97,-542.372C1055.06,-533.1 1063.84,-523.042 1072.22,-513.432"></path>
<polygon fill="black" stroke="black" points="1074.91,-515.679 1078.85,-505.844 1069.63,-511.076 1074.91,-515.679"></polygon>
<text text-anchor="middle" x="1080.54" y="-526.586" font-family="Times,serif" font-size="14.00">False</text>
</g>
<!-- 2 -->
<g id="node4" class="node"><title>2</title>
<polygon fill="#399de5" fill-opacity="0.945098" stroke="black" points="382.154,-393.7 277.846,-393.7 277.846,-318.3 382.154,-318.3 382.154,-393.7"></polygon>
<text text-anchor="middle" x="330" y="-377" font-family="Times,serif" font-size="14.00">Age &lt;= 2.5</text>
<text text-anchor="middle" x="330" y="-360.2" font-family="Times,serif" font-size="14.00">gini = 0.1</text>
<text text-anchor="middle" x="330" y="-343.4" font-family="Times,serif" font-size="14.00">samples = 170</text>
<text text-anchor="middle" x="330" y="-326.6" font-family="Times,serif" font-size="14.00">value = [9, 161]</text>
</g>
<!-- 1&#45;&gt;2 -->
<g id="edge4" class="edge"><title>1-&gt;2</title>
<path fill="none" stroke="black" d="M863.962,-456.552C753.392,-435.938 507.872,-390.163 392.362,-368.627"></path>
<polygon fill="black" stroke="black" points="392.738,-365.137 382.265,-366.744 391.455,-372.018 392.738,-365.137"></polygon>
</g>
<!-- 13 -->
<g id="node26" class="node"><title>13</title>
<polygon fill="none" stroke="black" points="972.154,-393.7 867.846,-393.7 867.846,-318.3 972.154,-318.3 972.154,-393.7"></polygon>
<text text-anchor="middle" x="920" y="-377" font-family="Times,serif" font-size="14.00">Fare &lt;= 23.35</text>
<text text-anchor="middle" x="920" y="-360.2" font-family="Times,serif" font-size="14.00">gini = 0.5</text>
<text text-anchor="middle" x="920" y="-343.4" font-family="Times,serif" font-size="14.00">samples = 144</text>
<text text-anchor="middle" x="920" y="-326.6" font-family="Times,serif" font-size="14.00">value = [72, 72]</text>
</g>
<!-- 1&#45;&gt;13 -->
<g id="edge26" class="edge"><title>1-&gt;13</title>
<path fill="none" stroke="black" d="M920,-430.372C920,-421.927 920,-412.829 920,-404.011"></path>
<polygon fill="black" stroke="black" points="923.5,-403.843 920,-393.844 916.5,-403.844 923.5,-403.843"></polygon>
</g>
<!-- 3 -->
<g id="node6" class="node"><title>3</title>
<polygon fill="none" stroke="black" points="200.155,-281.7 109.845,-281.7 109.845,-206.3 200.155,-206.3 200.155,-281.7"></polygon>
<text text-anchor="middle" x="155" y="-265" font-family="Times,serif" font-size="14.00">Parch &lt;= 1.5</text>
<text text-anchor="middle" x="155" y="-248.2" font-family="Times,serif" font-size="14.00">gini = 0.5</text>
<text text-anchor="middle" x="155" y="-231.4" font-family="Times,serif" font-size="14.00">samples = 2</text>
<text text-anchor="middle" x="155" y="-214.6" font-family="Times,serif" font-size="14.00">value = [1, 1]</text>
</g>
<!-- 2&#45;&gt;3 -->
<g id="edge6" class="edge"><title>2-&gt;3</title>
<path fill="none" stroke="black" d="M277.494,-321.996C255.807,-308.365 230.687,-292.575 208.861,-278.855"></path>
<polygon fill="black" stroke="black" points="210.688,-275.87 200.359,-273.511 206.962,-281.796 210.688,-275.87"></polygon>
</g>
<!-- 6 -->
<g id="node12" class="node"><title>6</title>
<polygon fill="#399de5" fill-opacity="0.949020" stroke="black" points="382.154,-281.7 277.846,-281.7 277.846,-206.3 382.154,-206.3 382.154,-281.7"></polygon>
<text text-anchor="middle" x="330" y="-265" font-family="Times,serif" font-size="14.00">Fare &lt;= 28.856</text>
<text text-anchor="middle" x="330" y="-248.2" font-family="Times,serif" font-size="14.00">gini = 0.091</text>
<text text-anchor="middle" x="330" y="-231.4" font-family="Times,serif" font-size="14.00">samples = 168</text>
<text text-anchor="middle" x="330" y="-214.6" font-family="Times,serif" font-size="14.00">value = [8, 160]</text>
</g>
<!-- 2&#45;&gt;6 -->
<g id="edge12" class="edge"><title>2-&gt;6</title>
<path fill="none" stroke="black" d="M330,-318.372C330,-309.927 330,-300.829 330,-292.011"></path>
<polygon fill="black" stroke="black" points="333.5,-291.843 330,-281.844 326.5,-291.844 333.5,-291.843"></polygon>
</g>
<!-- 4 -->
<g id="node8" class="node"><title>4</title>
<polygon fill="#399de5" stroke="black" points="90.1548,-161.401 -0.15481,-161.401 -0.15481,-102.599 90.1548,-102.599 90.1548,-161.401"></polygon>
<text text-anchor="middle" x="45" y="-144.6" font-family="Times,serif" font-size="14.00">gini = 0.0</text>
<text text-anchor="middle" x="45" y="-127.8" font-family="Times,serif" font-size="14.00">samples = 1</text>
<text text-anchor="middle" x="45" y="-111" font-family="Times,serif" font-size="14.00">value = [0, 1]</text>
</g>
<!-- 3&#45;&gt;4 -->
<g id="edge8" class="edge"><title>3-&gt;4</title>
<path fill="none" stroke="black" d="M118.372,-206.372C106.261,-194.261 92.8069,-180.807 80.7618,-168.762"></path>
<polygon fill="black" stroke="black" points="83.0145,-166.065 73.4686,-161.469 78.0648,-171.015 83.0145,-166.065"></polygon>
</g>
<!-- 5 -->
<g id="node10" class="node"><title>5</title>
<polygon fill="#e58139" stroke="black" points="200.155,-161.401 109.845,-161.401 109.845,-102.599 200.155,-102.599 200.155,-161.401"></polygon>
<text text-anchor="middle" x="155" y="-144.6" font-family="Times,serif" font-size="14.00">gini = 0.0</text>
<text text-anchor="middle" x="155" y="-127.8" font-family="Times,serif" font-size="14.00">samples = 1</text>
<text text-anchor="middle" x="155" y="-111" font-family="Times,serif" font-size="14.00">value = [1, 0]</text>
</g>
<!-- 3&#45;&gt;5 -->
<g id="edge10" class="edge"><title>3-&gt;5</title>
<path fill="none" stroke="black" d="M155,-206.372C155,-195.175 155,-182.83 155,-171.512"></path>
<polygon fill="black" stroke="black" points="158.5,-171.469 155,-161.469 151.5,-171.469 158.5,-171.469"></polygon>
</g>
<!-- 7 -->
<g id="node14" class="node"><title>7</title>
<polygon fill="#399de5" fill-opacity="0.886275" stroke="black" points="321.121,-169.7 218.879,-169.7 218.879,-94.2997 321.121,-94.2997 321.121,-169.7"></polygon>
<text text-anchor="middle" x="270" y="-153" font-family="Times,serif" font-size="14.00">Fare &lt;= 28.231</text>
<text text-anchor="middle" x="270" y="-136.2" font-family="Times,serif" font-size="14.00">gini = 0.182</text>
<text text-anchor="middle" x="270" y="-119.4" font-family="Times,serif" font-size="14.00">samples = 69</text>
<text text-anchor="middle" x="270" y="-102.6" font-family="Times,serif" font-size="14.00">value = [7, 62]</text>
</g>
<!-- 6&#45;&gt;7 -->
<g id="edge14" class="edge"><title>6-&gt;7</title>
<path fill="none" stroke="black" d="M310.021,-206.372C305.214,-197.559 300.02,-188.036 295.016,-178.862"></path>
<polygon fill="black" stroke="black" points="297.958,-176.946 290.096,-169.844 291.812,-180.298 297.958,-176.946"></polygon>
</g>
<!-- 10 -->
<g id="node20" class="node"><title>10</title>
<polygon fill="#399de5" fill-opacity="0.988235" stroke="black" points="436.903,-169.7 339.097,-169.7 339.097,-94.2997 436.903,-94.2997 436.903,-169.7"></polygon>
<text text-anchor="middle" x="388" y="-153" font-family="Times,serif" font-size="14.00">Parch &lt;= 1.5</text>
<text text-anchor="middle" x="388" y="-136.2" font-family="Times,serif" font-size="14.00">gini = 0.02</text>
<text text-anchor="middle" x="388" y="-119.4" font-family="Times,serif" font-size="14.00">samples = 99</text>
<text text-anchor="middle" x="388" y="-102.6" font-family="Times,serif" font-size="14.00">value = [1, 98]</text>
</g>
<!-- 6&#45;&gt;10 -->
<g id="edge20" class="edge"><title>6-&gt;10</title>
<path fill="none" stroke="black" d="M349.313,-206.372C353.96,-197.559 358.981,-188.036 363.818,-178.862"></path>
<polygon fill="black" stroke="black" points="367.005,-180.322 368.573,-169.844 360.813,-177.057 367.005,-180.322"></polygon>
</g>
<!-- 8 -->
<g id="node16" class="node"><title>8</title>
<polygon fill="#399de5" fill-opacity="0.901961" stroke="black" points="205.903,-58.4014 108.097,-58.4014 108.097,0.401379 205.903,0.401379 205.903,-58.4014"></polygon>
<text text-anchor="middle" x="157" y="-41.6" font-family="Times,serif" font-size="14.00">gini = 0.161</text>
<text text-anchor="middle" x="157" y="-24.8" font-family="Times,serif" font-size="14.00">samples = 68</text>
<text text-anchor="middle" x="157" y="-8" font-family="Times,serif" font-size="14.00">value = [6, 62]</text>
</g>
<!-- 7&#45;&gt;8 -->
<g id="edge16" class="edge"><title>7-&gt;8</title>
<path fill="none" stroke="black" d="M228.885,-94.251C218.221,-84.7197 206.766,-74.4811 196.203,-65.0402"></path>
<polygon fill="black" stroke="black" points="198.482,-62.3829 188.694,-58.3283 193.817,-67.602 198.482,-62.3829"></polygon>
</g>
<!-- 9 -->
<g id="node18" class="node"><title>9</title>
<polygon fill="#e58139" stroke="black" points="315.155,-58.4014 224.845,-58.4014 224.845,0.401379 315.155,0.401379 315.155,-58.4014"></polygon>
<text text-anchor="middle" x="270" y="-41.6" font-family="Times,serif" font-size="14.00">gini = 0.0</text>
<text text-anchor="middle" x="270" y="-24.8" font-family="Times,serif" font-size="14.00">samples = 1</text>
<text text-anchor="middle" x="270" y="-8" font-family="Times,serif" font-size="14.00">value = [1, 0]</text>
</g>
<!-- 7&#45;&gt;9 -->
<g id="edge18" class="edge"><title>7-&gt;9</title>
<path fill="none" stroke="black" d="M270,-94.251C270,-85.8302 270,-76.8572 270,-68.37"></path>
<polygon fill="black" stroke="black" points="273.5,-68.3283 270,-58.3283 266.5,-68.3283 273.5,-68.3283"></polygon>
</g>
<!-- 11 -->
<g id="node22" class="node"><title>11</title>
<polygon fill="#399de5" stroke="black" points="431.903,-58.4014 334.097,-58.4014 334.097,0.401379 431.903,0.401379 431.903,-58.4014"></polygon>
<text text-anchor="middle" x="383" y="-41.6" font-family="Times,serif" font-size="14.00">gini = 0.0</text>
<text text-anchor="middle" x="383" y="-24.8" font-family="Times,serif" font-size="14.00">samples = 84</text>
<text text-anchor="middle" x="383" y="-8" font-family="Times,serif" font-size="14.00">value = [0, 84]</text>
</g>
<!-- 10&#45;&gt;11 -->
<g id="edge22" class="edge"><title>10-&gt;11</title>
<path fill="none" stroke="black" d="M386.181,-94.251C385.764,-85.8302 385.32,-76.8572 384.9,-68.37"></path>
<polygon fill="black" stroke="black" points="388.393,-68.143 384.402,-58.3283 381.401,-68.4892 388.393,-68.143"></polygon>
</g>
<!-- 12 -->
<g id="node24" class="node"><title>12</title>
<polygon fill="#399de5" fill-opacity="0.929412" stroke="black" points="548.903,-58.4014 451.097,-58.4014 451.097,0.401379 548.903,0.401379 548.903,-58.4014"></polygon>
<text text-anchor="middle" x="500" y="-41.6" font-family="Times,serif" font-size="14.00">gini = 0.124</text>
<text text-anchor="middle" x="500" y="-24.8" font-family="Times,serif" font-size="14.00">samples = 15</text>
<text text-anchor="middle" x="500" y="-8" font-family="Times,serif" font-size="14.00">value = [1, 14]</text>
</g>
<!-- 10&#45;&gt;12 -->
<g id="edge24" class="edge"><title>10-&gt;12</title>
<path fill="none" stroke="black" d="M428.751,-94.251C439.321,-84.7197 450.674,-74.4811 461.144,-65.0402"></path>
<polygon fill="black" stroke="black" points="463.504,-67.6245 468.586,-58.3283 458.816,-62.4261 463.504,-67.6245"></polygon>
</g>
<!-- 14 -->
<g id="node28" class="node"><title>14</title>
<polygon fill="#399de5" fill-opacity="0.305882" stroke="black" points="914.154,-281.7 809.846,-281.7 809.846,-206.3 914.154,-206.3 914.154,-281.7"></polygon>
<text text-anchor="middle" x="862" y="-265" font-family="Times,serif" font-size="14.00">Age &lt;= 36.5</text>
<text text-anchor="middle" x="862" y="-248.2" font-family="Times,serif" font-size="14.00">gini = 0.484</text>
<text text-anchor="middle" x="862" y="-231.4" font-family="Times,serif" font-size="14.00">samples = 117</text>
<text text-anchor="middle" x="862" y="-214.6" font-family="Times,serif" font-size="14.00">value = [48, 69]</text>
</g>
<!-- 13&#45;&gt;14 -->
<g id="edge28" class="edge"><title>13-&gt;14</title>
<path fill="none" stroke="black" d="M900.687,-318.372C896.04,-309.559 891.019,-300.036 886.182,-290.862"></path>
<polygon fill="black" stroke="black" points="889.187,-289.057 881.427,-281.844 882.995,-292.322 889.187,-289.057"></polygon>
</g>
<!-- 21 -->
<g id="node42" class="node"><title>21</title>
<polygon fill="#e58139" fill-opacity="0.874510" stroke="black" points="1030.9,-281.7 933.097,-281.7 933.097,-206.3 1030.9,-206.3 1030.9,-281.7"></polygon>
<text text-anchor="middle" x="982" y="-265" font-family="Times,serif" font-size="14.00">Parch &lt;= 0.5</text>
<text text-anchor="middle" x="982" y="-248.2" font-family="Times,serif" font-size="14.00">gini = 0.198</text>
<text text-anchor="middle" x="982" y="-231.4" font-family="Times,serif" font-size="14.00">samples = 27</text>
<text text-anchor="middle" x="982" y="-214.6" font-family="Times,serif" font-size="14.00">value = [24, 3]</text>
</g>
<!-- 13&#45;&gt;21 -->
<g id="edge42" class="edge"><title>13-&gt;21</title>
<path fill="none" stroke="black" d="M940.645,-318.372C945.664,-309.468 951.091,-299.838 956.312,-290.575"></path>
<polygon fill="black" stroke="black" points="959.373,-292.274 961.234,-281.844 953.274,-288.836 959.373,-292.274"></polygon>
</g>
<!-- 15 -->
<g id="node30" class="node"><title>15</title>
<polygon fill="#399de5" fill-opacity="0.380392" stroke="black" points="802.955,-169.7 675.045,-169.7 675.045,-94.2997 802.955,-94.2997 802.955,-169.7"></polygon>
<text text-anchor="middle" x="739" y="-153" font-family="Times,serif" font-size="14.00">Embarked_S &lt;= 0.5</text>
<text text-anchor="middle" x="739" y="-136.2" font-family="Times,serif" font-size="14.00">gini = 0.472</text>
<text text-anchor="middle" x="739" y="-119.4" font-family="Times,serif" font-size="14.00">samples = 110</text>
<text text-anchor="middle" x="739" y="-102.6" font-family="Times,serif" font-size="14.00">value = [42, 68]</text>
</g>
<!-- 14&#45;&gt;15 -->
<g id="edge30" class="edge"><title>14-&gt;15</title>
<path fill="none" stroke="black" d="M821.043,-206.372C810.368,-196.825 798.76,-186.444 787.726,-176.576"></path>
<polygon fill="black" stroke="black" points="789.985,-173.901 780.198,-169.844 785.319,-179.119 789.985,-173.901"></polygon>
</g>
<!-- 18 -->
<g id="node36" class="node"><title>18</title>
<polygon fill="#e58139" fill-opacity="0.831373" stroke="black" points="912.155,-169.7 821.845,-169.7 821.845,-94.2997 912.155,-94.2997 912.155,-169.7"></polygon>
<text text-anchor="middle" x="867" y="-153" font-family="Times,serif" font-size="14.00">Age &lt;= 55.0</text>
<text text-anchor="middle" x="867" y="-136.2" font-family="Times,serif" font-size="14.00">gini = 0.245</text>
<text text-anchor="middle" x="867" y="-119.4" font-family="Times,serif" font-size="14.00">samples = 7</text>
<text text-anchor="middle" x="867" y="-102.6" font-family="Times,serif" font-size="14.00">value = [6, 1]</text>
</g>
<!-- 14&#45;&gt;18 -->
<g id="edge36" class="edge"><title>14-&gt;18</title>
<path fill="none" stroke="black" d="M863.665,-206.372C864.049,-197.927 864.462,-188.829 864.863,-180.011"></path>
<polygon fill="black" stroke="black" points="868.368,-179.992 865.325,-169.844 861.375,-179.674 868.368,-179.992"></polygon>
</g>
<!-- 16 -->
<g id="node32" class="node"><title>16</title>
<polygon fill="#399de5" fill-opacity="0.603922" stroke="black" points="672.154,-58.4014 567.846,-58.4014 567.846,0.401379 672.154,0.401379 672.154,-58.4014"></polygon>
<text text-anchor="middle" x="620" y="-41.6" font-family="Times,serif" font-size="14.00">gini = 0.406</text>
<text text-anchor="middle" x="620" y="-24.8" font-family="Times,serif" font-size="14.00">samples = 53</text>
<text text-anchor="middle" x="620" y="-8" font-family="Times,serif" font-size="14.00">value = [15, 38]</text>
</g>
<!-- 15&#45;&gt;16 -->
<g id="edge32" class="edge"><title>15-&gt;16</title>
<path fill="none" stroke="black" d="M695.702,-94.251C684.472,-84.7197 672.408,-74.4811 661.285,-65.0402"></path>
<polygon fill="black" stroke="black" points="663.266,-62.1308 653.377,-58.3283 658.736,-67.4677 663.266,-62.1308"></polygon>
</g>
<!-- 17 -->
<g id="node34" class="node"><title>17</title>
<polygon fill="#399de5" fill-opacity="0.098039" stroke="black" points="796.154,-58.4014 691.846,-58.4014 691.846,0.401379 796.154,0.401379 796.154,-58.4014"></polygon>
<text text-anchor="middle" x="744" y="-41.6" font-family="Times,serif" font-size="14.00">gini = 0.499</text>
<text text-anchor="middle" x="744" y="-24.8" font-family="Times,serif" font-size="14.00">samples = 57</text>
<text text-anchor="middle" x="744" y="-8" font-family="Times,serif" font-size="14.00">value = [27, 30]</text>
</g>
<!-- 15&#45;&gt;17 -->
<g id="edge34" class="edge"><title>15-&gt;17</title>
<path fill="none" stroke="black" d="M740.819,-94.251C741.236,-85.8302 741.68,-76.8572 742.1,-68.37"></path>
<polygon fill="black" stroke="black" points="745.599,-68.4892 742.598,-58.3283 738.607,-68.143 745.599,-68.4892"></polygon>
</g>
<!-- 19 -->
<g id="node38" class="node"><title>19</title>
<polygon fill="#e58139" stroke="black" points="906.155,-58.4014 815.845,-58.4014 815.845,0.401379 906.155,0.401379 906.155,-58.4014"></polygon>
<text text-anchor="middle" x="861" y="-41.6" font-family="Times,serif" font-size="14.00">gini = 0.0</text>
<text text-anchor="middle" x="861" y="-24.8" font-family="Times,serif" font-size="14.00">samples = 6</text>
<text text-anchor="middle" x="861" y="-8" font-family="Times,serif" font-size="14.00">value = [6, 0]</text>
</g>
<!-- 18&#45;&gt;19 -->
<g id="edge38" class="edge"><title>18-&gt;19</title>
<path fill="none" stroke="black" d="M864.817,-94.251C864.317,-85.8302 863.784,-76.8572 863.279,-68.37"></path>
<polygon fill="black" stroke="black" points="866.77,-68.1031 862.683,-58.3283 859.782,-68.5183 866.77,-68.1031"></polygon>
</g>
<!-- 20 -->
<g id="node40" class="node"><title>20</title>
<polygon fill="#399de5" stroke="black" points="1016.15,-58.4014 925.845,-58.4014 925.845,0.401379 1016.15,0.401379 1016.15,-58.4014"></polygon>
<text text-anchor="middle" x="971" y="-41.6" font-family="Times,serif" font-size="14.00">gini = 0.0</text>
<text text-anchor="middle" x="971" y="-24.8" font-family="Times,serif" font-size="14.00">samples = 1</text>
<text text-anchor="middle" x="971" y="-8" font-family="Times,serif" font-size="14.00">value = [0, 1]</text>
</g>
<!-- 18&#45;&gt;20 -->
<g id="edge40" class="edge"><title>18-&gt;20</title>
<path fill="none" stroke="black" d="M904.841,-94.251C914.56,-84.8123 924.993,-74.6798 934.636,-65.3154"></path>
<polygon fill="black" stroke="black" points="937.095,-67.806 941.83,-58.3283 932.218,-62.7843 937.095,-67.806"></polygon>
</g>
<!-- 22 -->
<g id="node44" class="node"><title>22</title>
<polygon fill="#399de5" stroke="black" points="1025.15,-161.401 934.845,-161.401 934.845,-102.599 1025.15,-102.599 1025.15,-161.401"></polygon>
<text text-anchor="middle" x="980" y="-144.6" font-family="Times,serif" font-size="14.00">gini = 0.0</text>
<text text-anchor="middle" x="980" y="-127.8" font-family="Times,serif" font-size="14.00">samples = 1</text>
<text text-anchor="middle" x="980" y="-111" font-family="Times,serif" font-size="14.00">value = [0, 1]</text>
</g>
<!-- 21&#45;&gt;22 -->
<g id="edge44" class="edge"><title>21-&gt;22</title>
<path fill="none" stroke="black" d="M981.334,-206.372C981.13,-195.175 980.906,-182.83 980.7,-171.512"></path>
<polygon fill="black" stroke="black" points="984.199,-171.403 980.518,-161.469 977.2,-171.531 984.199,-171.403"></polygon>
</g>
<!-- 23 -->
<g id="node46" class="node"><title>23</title>
<polygon fill="#e58139" fill-opacity="0.917647" stroke="black" points="1141.9,-169.7 1044.1,-169.7 1044.1,-94.2997 1141.9,-94.2997 1141.9,-169.7"></polygon>
<text text-anchor="middle" x="1093" y="-153" font-family="Times,serif" font-size="14.00">Age &lt;= 5.5</text>
<text text-anchor="middle" x="1093" y="-136.2" font-family="Times,serif" font-size="14.00">gini = 0.142</text>
<text text-anchor="middle" x="1093" y="-119.4" font-family="Times,serif" font-size="14.00">samples = 26</text>
<text text-anchor="middle" x="1093" y="-102.6" font-family="Times,serif" font-size="14.00">value = [24, 2]</text>
</g>
<!-- 21&#45;&gt;23 -->
<g id="edge46" class="edge"><title>21-&gt;23</title>
<path fill="none" stroke="black" d="M1018.96,-206.372C1028.41,-197.009 1038.67,-186.843 1048.45,-177.146"></path>
<polygon fill="black" stroke="black" points="1051.18,-179.369 1055.82,-169.844 1046.25,-174.396 1051.18,-179.369"></polygon>
</g>
<!-- 24 -->
<g id="node48" class="node"><title>24</title>
<polygon fill="#e58139" fill-opacity="0.498039" stroke="black" points="1126.15,-58.4014 1035.85,-58.4014 1035.85,0.401379 1126.15,0.401379 1126.15,-58.4014"></polygon>
<text text-anchor="middle" x="1081" y="-41.6" font-family="Times,serif" font-size="14.00">gini = 0.444</text>
<text text-anchor="middle" x="1081" y="-24.8" font-family="Times,serif" font-size="14.00">samples = 3</text>
<text text-anchor="middle" x="1081" y="-8" font-family="Times,serif" font-size="14.00">value = [2, 1]</text>
</g>
<!-- 23&#45;&gt;24 -->
<g id="edge48" class="edge"><title>23-&gt;24</title>
<path fill="none" stroke="black" d="M1088.63,-94.251C1087.63,-85.8302 1086.57,-76.8572 1085.56,-68.37"></path>
<polygon fill="black" stroke="black" points="1089.02,-67.8455 1084.37,-58.3283 1082.07,-68.6714 1089.02,-67.8455"></polygon>
</g>
<!-- 25 -->
<g id="node50" class="node"><title>25</title>
<polygon fill="#e58139" fill-opacity="0.952941" stroke="black" points="1242.9,-58.4014 1145.1,-58.4014 1145.1,0.401379 1242.9,0.401379 1242.9,-58.4014"></polygon>
<text text-anchor="middle" x="1194" y="-41.6" font-family="Times,serif" font-size="14.00">gini = 0.083</text>
<text text-anchor="middle" x="1194" y="-24.8" font-family="Times,serif" font-size="14.00">samples = 23</text>
<text text-anchor="middle" x="1194" y="-8" font-family="Times,serif" font-size="14.00">value = [22, 1]</text>
</g>
<!-- 23&#45;&gt;25 -->
<g id="edge50" class="edge"><title>23-&gt;25</title>
<path fill="none" stroke="black" d="M1129.75,-94.251C1139.1,-84.9048 1149.12,-74.8784 1158.41,-65.591"></path>
<polygon fill="black" stroke="black" points="1161.08,-67.8743 1165.67,-58.3283 1156.13,-62.9245 1161.08,-67.8743"></polygon>
</g>
<!-- 27 -->
<g id="node54" class="node"><title>27</title>
<polygon fill="#399de5" fill-opacity="0.498039" stroke="black" points="1159.9,-393.7 1062.1,-393.7 1062.1,-318.3 1159.9,-318.3 1159.9,-393.7"></polygon>
<text text-anchor="middle" x="1111" y="-377" font-family="Times,serif" font-size="14.00">SibSp &lt;= 2.5</text>
<text text-anchor="middle" x="1111" y="-360.2" font-family="Times,serif" font-size="14.00">gini = 0.444</text>
<text text-anchor="middle" x="1111" y="-343.4" font-family="Times,serif" font-size="14.00">samples = 24</text>
<text text-anchor="middle" x="1111" y="-326.6" font-family="Times,serif" font-size="14.00">value = [8, 16]</text>
</g>
<!-- 26&#45;&gt;27 -->
<g id="edge54" class="edge"><title>26-&gt;27</title>
<path fill="none" stroke="black" d="M1111,-430.372C1111,-421.927 1111,-412.829 1111,-404.011"></path>
<polygon fill="black" stroke="black" points="1114.5,-403.843 1111,-393.844 1107.5,-403.844 1114.5,-403.843"></polygon>
</g>
<!-- 34 -->
<g id="node68" class="node"><title>34</title>
<polygon fill="#e58139" fill-opacity="0.796078" stroke="black" points="1755.9,-393.7 1644.1,-393.7 1644.1,-318.3 1755.9,-318.3 1755.9,-393.7"></polygon>
<text text-anchor="middle" x="1700" y="-377" font-family="Times,serif" font-size="14.00">Pclass_1 &lt;= 0.5</text>
<text text-anchor="middle" x="1700" y="-360.2" font-family="Times,serif" font-size="14.00">gini = 0.28</text>
<text text-anchor="middle" x="1700" y="-343.4" font-family="Times,serif" font-size="14.00">samples = 553</text>
<text text-anchor="middle" x="1700" y="-326.6" font-family="Times,serif" font-size="14.00">value = [460, 93]</text>
</g>
<!-- 26&#45;&gt;34 -->
<g id="edge68" class="edge"><title>26-&gt;34</title>
<path fill="none" stroke="black" d="M1170.17,-455.949C1280.75,-435.297 1518.01,-390.989 1633.76,-369.372"></path>
<polygon fill="black" stroke="black" points="1634.71,-372.754 1643.9,-367.478 1633.42,-365.873 1634.71,-372.754"></polygon>
</g>
<!-- 28 -->
<g id="node56" class="node"><title>28</title>
<polygon fill="#399de5" stroke="black" points="1155.9,-273.401 1058.1,-273.401 1058.1,-214.599 1155.9,-214.599 1155.9,-273.401"></polygon>
<text text-anchor="middle" x="1107" y="-256.6" font-family="Times,serif" font-size="14.00">gini = 0.0</text>
<text text-anchor="middle" x="1107" y="-239.8" font-family="Times,serif" font-size="14.00">samples = 15</text>
<text text-anchor="middle" x="1107" y="-223" font-family="Times,serif" font-size="14.00">value = [0, 15]</text>
</g>
<!-- 27&#45;&gt;28 -->
<g id="edge56" class="edge"><title>27-&gt;28</title>
<path fill="none" stroke="black" d="M1109.67,-318.372C1109.26,-307.175 1108.81,-294.83 1108.4,-283.512"></path>
<polygon fill="black" stroke="black" points="1111.9,-283.335 1108.04,-273.469 1104.9,-283.589 1111.9,-283.335"></polygon>
</g>
<!-- 29 -->
<g id="node58" class="node"><title>29</title>
<polygon fill="#e58139" fill-opacity="0.874510" stroke="black" points="1265.15,-281.7 1174.85,-281.7 1174.85,-206.3 1265.15,-206.3 1265.15,-281.7"></polygon>
<text text-anchor="middle" x="1220" y="-265" font-family="Times,serif" font-size="14.00">Parch &lt;= 1.5</text>
<text text-anchor="middle" x="1220" y="-248.2" font-family="Times,serif" font-size="14.00">gini = 0.198</text>
<text text-anchor="middle" x="1220" y="-231.4" font-family="Times,serif" font-size="14.00">samples = 9</text>
<text text-anchor="middle" x="1220" y="-214.6" font-family="Times,serif" font-size="14.00">value = [8, 1]</text>
</g>
<!-- 27&#45;&gt;29 -->
<g id="edge58" class="edge"><title>27-&gt;29</title>
<path fill="none" stroke="black" d="M1147.3,-318.372C1156.57,-309.009 1166.65,-298.843 1176.26,-289.146"></path>
<polygon fill="black" stroke="black" points="1178.94,-291.41 1183.49,-281.844 1173.97,-286.483 1178.94,-291.41"></polygon>
</g>
<!-- 30 -->
<g id="node60" class="node"><title>30</title>
<polygon fill="#e58139" stroke="black" points="1259.15,-161.401 1168.85,-161.401 1168.85,-102.599 1259.15,-102.599 1259.15,-161.401"></polygon>
<text text-anchor="middle" x="1214" y="-144.6" font-family="Times,serif" font-size="14.00">gini = 0.0</text>
<text text-anchor="middle" x="1214" y="-127.8" font-family="Times,serif" font-size="14.00">samples = 5</text>
<text text-anchor="middle" x="1214" y="-111" font-family="Times,serif" font-size="14.00">value = [5, 0]</text>
</g>
<!-- 29&#45;&gt;30 -->
<g id="edge60" class="edge"><title>29-&gt;30</title>
<path fill="none" stroke="black" d="M1218,-206.372C1217.39,-195.175 1216.72,-182.83 1216.1,-171.512"></path>
<polygon fill="black" stroke="black" points="1219.59,-171.263 1215.55,-161.469 1212.6,-171.644 1219.59,-171.263"></polygon>
</g>
<!-- 31 -->
<g id="node62" class="node"><title>31</title>
<polygon fill="#e58139" fill-opacity="0.666667" stroke="black" points="1369.15,-169.7 1278.85,-169.7 1278.85,-94.2997 1369.15,-94.2997 1369.15,-169.7"></polygon>
<text text-anchor="middle" x="1324" y="-153" font-family="Times,serif" font-size="14.00">Age &lt;= 3.5</text>
<text text-anchor="middle" x="1324" y="-136.2" font-family="Times,serif" font-size="14.00">gini = 0.375</text>
<text text-anchor="middle" x="1324" y="-119.4" font-family="Times,serif" font-size="14.00">samples = 4</text>
<text text-anchor="middle" x="1324" y="-102.6" font-family="Times,serif" font-size="14.00">value = [3, 1]</text>
</g>
<!-- 29&#45;&gt;31 -->
<g id="edge62" class="edge"><title>29-&gt;31</title>
<path fill="none" stroke="black" d="M1254.63,-206.372C1263.48,-197.009 1273.09,-186.843 1282.26,-177.146"></path>
<polygon fill="black" stroke="black" points="1284.84,-179.515 1289.17,-169.844 1279.75,-174.705 1284.84,-179.515"></polygon>
</g>
<!-- 32 -->
<g id="node64" class="node"><title>32</title>
<polygon fill="none" stroke="black" points="1352.15,-58.4014 1261.85,-58.4014 1261.85,0.401379 1352.15,0.401379 1352.15,-58.4014"></polygon>
<text text-anchor="middle" x="1307" y="-41.6" font-family="Times,serif" font-size="14.00">gini = 0.5</text>
<text text-anchor="middle" x="1307" y="-24.8" font-family="Times,serif" font-size="14.00">samples = 2</text>
<text text-anchor="middle" x="1307" y="-8" font-family="Times,serif" font-size="14.00">value = [1, 1]</text>
</g>
<!-- 31&#45;&gt;32 -->
<g id="edge64" class="edge"><title>31-&gt;32</title>
<path fill="none" stroke="black" d="M1317.81,-94.251C1316.4,-85.8302 1314.89,-76.8572 1313.46,-68.37"></path>
<polygon fill="black" stroke="black" points="1316.88,-67.6086 1311.77,-58.3283 1309.98,-68.7706 1316.88,-67.6086"></polygon>
</g>
<!-- 33 -->
<g id="node66" class="node"><title>33</title>
<polygon fill="#e58139" stroke="black" points="1462.15,-58.4014 1371.85,-58.4014 1371.85,0.401379 1462.15,0.401379 1462.15,-58.4014"></polygon>
<text text-anchor="middle" x="1417" y="-41.6" font-family="Times,serif" font-size="14.00">gini = 0.0</text>
<text text-anchor="middle" x="1417" y="-24.8" font-family="Times,serif" font-size="14.00">samples = 2</text>
<text text-anchor="middle" x="1417" y="-8" font-family="Times,serif" font-size="14.00">value = [2, 0]</text>
</g>
<!-- 31&#45;&gt;33 -->
<g id="edge66" class="edge"><title>31-&gt;33</title>
<path fill="none" stroke="black" d="M1357.84,-94.251C1366.36,-84.9973 1375.49,-75.0769 1383.97,-65.8671"></path>
<polygon fill="black" stroke="black" points="1386.72,-68.0555 1390.92,-58.3283 1381.57,-63.3139 1386.72,-68.0555"></polygon>
</g>
<!-- 35 -->
<g id="node70" class="node"><title>35</title>
<polygon fill="#e58139" fill-opacity="0.870588" stroke="black" points="1755.9,-281.7 1644.1,-281.7 1644.1,-206.3 1755.9,-206.3 1755.9,-281.7"></polygon>
<text text-anchor="middle" x="1700" y="-265" font-family="Times,serif" font-size="14.00">Fare &lt;= 51.698</text>
<text text-anchor="middle" x="1700" y="-248.2" font-family="Times,serif" font-size="14.00">gini = 0.204</text>
<text text-anchor="middle" x="1700" y="-231.4" font-family="Times,serif" font-size="14.00">samples = 433</text>
<text text-anchor="middle" x="1700" y="-214.6" font-family="Times,serif" font-size="14.00">value = [383, 50]</text>
</g>
<!-- 34&#45;&gt;35 -->
<g id="edge70" class="edge"><title>34-&gt;35</title>
<path fill="none" stroke="black" d="M1700,-318.372C1700,-309.927 1700,-300.829 1700,-292.011"></path>
<polygon fill="black" stroke="black" points="1703.5,-291.843 1700,-281.844 1696.5,-291.844 1703.5,-291.843"></polygon>
</g>
<!-- 42 -->
<g id="node84" class="node"><title>42</title>
<polygon fill="#e58139" fill-opacity="0.443137" stroke="black" points="1937.15,-281.7 1832.85,-281.7 1832.85,-206.3 1937.15,-206.3 1937.15,-281.7"></polygon>
<text text-anchor="middle" x="1885" y="-265" font-family="Times,serif" font-size="14.00">Fare &lt;= 26.144</text>
<text text-anchor="middle" x="1885" y="-248.2" font-family="Times,serif" font-size="14.00">gini = 0.46</text>
<text text-anchor="middle" x="1885" y="-231.4" font-family="Times,serif" font-size="14.00">samples = 120</text>
<text text-anchor="middle" x="1885" y="-214.6" font-family="Times,serif" font-size="14.00">value = [77, 43]</text>
</g>
<!-- 34&#45;&gt;42 -->
<g id="edge84" class="edge"><title>34-&gt;42</title>
<path fill="none" stroke="black" d="M1756.01,-321.698C1777.41,-308.971 1801.92,-294.398 1823.79,-281.397"></path>
<polygon fill="black" stroke="black" points="1825.85,-284.24 1832.66,-276.121 1822.28,-278.224 1825.85,-284.24"></polygon>
</g>
<!-- 36 -->
<g id="node72" class="node"><title>36</title>
<polygon fill="#e58139" fill-opacity="0.878431" stroke="black" points="1697.9,-169.7 1586.1,-169.7 1586.1,-94.2997 1697.9,-94.2997 1697.9,-169.7"></polygon>
<text text-anchor="middle" x="1642" y="-153" font-family="Times,serif" font-size="14.00">Age &lt;= 13.0</text>
<text text-anchor="middle" x="1642" y="-136.2" font-family="Times,serif" font-size="14.00">gini = 0.193</text>
<text text-anchor="middle" x="1642" y="-119.4" font-family="Times,serif" font-size="14.00">samples = 417</text>
<text text-anchor="middle" x="1642" y="-102.6" font-family="Times,serif" font-size="14.00">value = [372, 45]</text>
</g>
<!-- 35&#45;&gt;36 -->
<g id="edge72" class="edge"><title>35-&gt;36</title>
<path fill="none" stroke="black" d="M1680.69,-206.372C1676.04,-197.559 1671.02,-188.036 1666.18,-178.862"></path>
<polygon fill="black" stroke="black" points="1669.19,-177.057 1661.43,-169.844 1662.99,-180.322 1669.19,-177.057"></polygon>
</g>
<!-- 39 -->
<g id="node78" class="node"><title>39</title>
<polygon fill="#e58139" fill-opacity="0.545098" stroke="black" points="1818.12,-169.7 1715.88,-169.7 1715.88,-94.2997 1818.12,-94.2997 1818.12,-169.7"></polygon>
<text text-anchor="middle" x="1767" y="-153" font-family="Times,serif" font-size="14.00">Fare &lt;= 63.023</text>
<text text-anchor="middle" x="1767" y="-136.2" font-family="Times,serif" font-size="14.00">gini = 0.43</text>
<text text-anchor="middle" x="1767" y="-119.4" font-family="Times,serif" font-size="14.00">samples = 16</text>
<text text-anchor="middle" x="1767" y="-102.6" font-family="Times,serif" font-size="14.00">value = [11, 5]</text>
</g>
<!-- 35&#45;&gt;39 -->
<g id="edge78" class="edge"><title>35-&gt;39</title>
<path fill="none" stroke="black" d="M1722.31,-206.372C1727.73,-197.468 1733.6,-187.838 1739.24,-178.575"></path>
<polygon fill="black" stroke="black" points="1742.35,-180.205 1744.56,-169.844 1736.37,-176.563 1742.35,-180.205"></polygon>
</g>
<!-- 37 -->
<g id="node74" class="node"><title>37</title>
<polygon fill="#e58139" fill-opacity="0.498039" stroke="black" points="1572.15,-58.4014 1481.85,-58.4014 1481.85,0.401379 1572.15,0.401379 1572.15,-58.4014"></polygon>
<text text-anchor="middle" x="1527" y="-41.6" font-family="Times,serif" font-size="14.00">gini = 0.444</text>
<text text-anchor="middle" x="1527" y="-24.8" font-family="Times,serif" font-size="14.00">samples = 12</text>
<text text-anchor="middle" x="1527" y="-8" font-family="Times,serif" font-size="14.00">value = [8, 4]</text>
</g>
<!-- 36&#45;&gt;37 -->
<g id="edge74" class="edge"><title>36-&gt;37</title>
<path fill="none" stroke="black" d="M1600.16,-94.251C1589.3,-84.7197 1577.65,-74.4811 1566.9,-65.0402"></path>
<polygon fill="black" stroke="black" points="1569.08,-62.2975 1559.25,-58.3283 1564.46,-67.557 1569.08,-62.2975"></polygon>
</g>
<!-- 38 -->
<g id="node76" class="node"><title>38</title>
<polygon fill="#e58139" fill-opacity="0.886275" stroke="black" points="1702.9,-58.4014 1591.1,-58.4014 1591.1,0.401379 1702.9,0.401379 1702.9,-58.4014"></polygon>
<text text-anchor="middle" x="1647" y="-41.6" font-family="Times,serif" font-size="14.00">gini = 0.182</text>
<text text-anchor="middle" x="1647" y="-24.8" font-family="Times,serif" font-size="14.00">samples = 405</text>
<text text-anchor="middle" x="1647" y="-8" font-family="Times,serif" font-size="14.00">value = [364, 41]</text>
</g>
<!-- 36&#45;&gt;38 -->
<g id="edge76" class="edge"><title>36-&gt;38</title>
<path fill="none" stroke="black" d="M1643.82,-94.251C1644.24,-85.8302 1644.68,-76.8572 1645.1,-68.37"></path>
<polygon fill="black" stroke="black" points="1648.6,-68.4892 1645.6,-58.3283 1641.61,-68.143 1648.6,-68.4892"></polygon>
</g>
<!-- 40 -->
<g id="node80" class="node"><title>40</title>
<polygon fill="#399de5" fill-opacity="0.600000" stroke="black" points="1812.15,-58.4014 1721.85,-58.4014 1721.85,0.401379 1812.15,0.401379 1812.15,-58.4014"></polygon>
<text text-anchor="middle" x="1767" y="-41.6" font-family="Times,serif" font-size="14.00">gini = 0.408</text>
<text text-anchor="middle" x="1767" y="-24.8" font-family="Times,serif" font-size="14.00">samples = 7</text>
<text text-anchor="middle" x="1767" y="-8" font-family="Times,serif" font-size="14.00">value = [2, 5]</text>
</g>
<!-- 39&#45;&gt;40 -->
<g id="edge80" class="edge"><title>39-&gt;40</title>
<path fill="none" stroke="black" d="M1767,-94.251C1767,-85.8302 1767,-76.8572 1767,-68.37"></path>
<polygon fill="black" stroke="black" points="1770.5,-68.3283 1767,-58.3283 1763.5,-68.3283 1770.5,-68.3283"></polygon>
</g>
<!-- 41 -->
<g id="node82" class="node"><title>41</title>
<polygon fill="#e58139" stroke="black" points="1922.15,-58.4014 1831.85,-58.4014 1831.85,0.401379 1922.15,0.401379 1922.15,-58.4014"></polygon>
<text text-anchor="middle" x="1877" y="-41.6" font-family="Times,serif" font-size="14.00">gini = 0.0</text>
<text text-anchor="middle" x="1877" y="-24.8" font-family="Times,serif" font-size="14.00">samples = 9</text>
<text text-anchor="middle" x="1877" y="-8" font-family="Times,serif" font-size="14.00">value = [9, 0]</text>
</g>
<!-- 39&#45;&gt;41 -->
<g id="edge82" class="edge"><title>39-&gt;41</title>
<path fill="none" stroke="black" d="M1807.02,-94.251C1817.3,-84.8123 1828.34,-74.6798 1838.54,-65.3154"></path>
<polygon fill="black" stroke="black" points="1841.15,-67.6697 1846.15,-58.3283 1836.41,-62.5135 1841.15,-67.6697"></polygon>
</g>
<!-- 43 -->
<g id="node86" class="node"><title>43</title>
<polygon fill="#e58139" stroke="black" points="1933.9,-161.401 1836.1,-161.401 1836.1,-102.599 1933.9,-102.599 1933.9,-161.401"></polygon>
<text text-anchor="middle" x="1885" y="-144.6" font-family="Times,serif" font-size="14.00">gini = 0.0</text>
<text text-anchor="middle" x="1885" y="-127.8" font-family="Times,serif" font-size="14.00">samples = 10</text>
<text text-anchor="middle" x="1885" y="-111" font-family="Times,serif" font-size="14.00">value = [10, 0]</text>
</g>
<!-- 42&#45;&gt;43 -->
<g id="edge86" class="edge"><title>42-&gt;43</title>
<path fill="none" stroke="black" d="M1885,-206.372C1885,-195.175 1885,-182.83 1885,-171.512"></path>
<polygon fill="black" stroke="black" points="1888.5,-171.469 1885,-161.469 1881.5,-171.469 1888.5,-171.469"></polygon>
</g>
<!-- 44 -->
<g id="node88" class="node"><title>44</title>
<polygon fill="#e58139" fill-opacity="0.356863" stroke="black" points="2057.15,-169.7 1952.85,-169.7 1952.85,-94.2997 2057.15,-94.2997 2057.15,-169.7"></polygon>
<text text-anchor="middle" x="2005" y="-153" font-family="Times,serif" font-size="14.00">Age &lt;= 53.0</text>
<text text-anchor="middle" x="2005" y="-136.2" font-family="Times,serif" font-size="14.00">gini = 0.476</text>
<text text-anchor="middle" x="2005" y="-119.4" font-family="Times,serif" font-size="14.00">samples = 110</text>
<text text-anchor="middle" x="2005" y="-102.6" font-family="Times,serif" font-size="14.00">value = [67, 43]</text>
</g>
<!-- 42&#45;&gt;44 -->
<g id="edge88" class="edge"><title>42-&gt;44</title>
<path fill="none" stroke="black" d="M1924.96,-206.372C1935.27,-196.917 1946.48,-186.644 1957.15,-176.861"></path>
<polygon fill="black" stroke="black" points="1959.8,-179.181 1964.81,-169.844 1955.07,-174.021 1959.8,-179.181"></polygon>
</g>
<!-- 45 -->
<g id="node90" class="node"><title>45</title>
<polygon fill="#e58139" fill-opacity="0.184314" stroke="black" points="2052.15,-58.4014 1947.85,-58.4014 1947.85,0.401379 2052.15,0.401379 2052.15,-58.4014"></polygon>
<text text-anchor="middle" x="2000" y="-41.6" font-family="Times,serif" font-size="14.00">gini = 0.495</text>
<text text-anchor="middle" x="2000" y="-24.8" font-family="Times,serif" font-size="14.00">samples = 89</text>
<text text-anchor="middle" x="2000" y="-8" font-family="Times,serif" font-size="14.00">value = [49, 40]</text>
</g>
<!-- 44&#45;&gt;45 -->
<g id="edge90" class="edge"><title>44-&gt;45</title>
<path fill="none" stroke="black" d="M2003.18,-94.251C2002.76,-85.8302 2002.32,-76.8572 2001.9,-68.37"></path>
<polygon fill="black" stroke="black" points="2005.39,-68.143 2001.4,-58.3283 1998.4,-68.4892 2005.39,-68.143"></polygon>
</g>
<!-- 46 -->
<g id="node92" class="node"><title>46</title>
<polygon fill="#e58139" fill-opacity="0.831373" stroke="black" points="2168.9,-58.4014 2071.1,-58.4014 2071.1,0.401379 2168.9,0.401379 2168.9,-58.4014"></polygon>
<text text-anchor="middle" x="2120" y="-41.6" font-family="Times,serif" font-size="14.00">gini = 0.245</text>
<text text-anchor="middle" x="2120" y="-24.8" font-family="Times,serif" font-size="14.00">samples = 21</text>
<text text-anchor="middle" x="2120" y="-8" font-family="Times,serif" font-size="14.00">value = [18, 3]</text>
</g>
<!-- 44&#45;&gt;46 -->
<g id="edge92" class="edge"><title>44-&gt;46</title>
<path fill="none" stroke="black" d="M2046.84,-94.251C2057.7,-84.7197 2069.35,-74.4811 2080.1,-65.0402"></path>
<polygon fill="black" stroke="black" points="2082.54,-67.557 2087.75,-58.3283 2077.92,-62.2975 2082.54,-67.557"></polygon>
</g>
</g>
</svg>